<mxfile host="app.diagrams.net" modified="2023-07-14T12:11:21.755Z" agent="Mozilla/5.0 (Macintosh; Intel Mac OS X 10_15_7) AppleWebKit/605.1.15 (KHTML, like Gecko) Version/16.5.1 Safari/605.1.15" etag="1rykZDeYkxR-aM7gUc6B" version="21.6.2" type="device">
  <diagram id="DlCl56ASFMyrzOr43R92" name="Page-1">
    <mxGraphModel dx="277" dy="1046" grid="1" gridSize="5" guides="1" tooltips="1" connect="1" arrows="1" fold="1" page="0" pageScale="1" pageWidth="850" pageHeight="1100" math="0" shadow="0">
      <root>
        <mxCell id="0" />
        <mxCell id="1" parent="0" />
        <mxCell id="aM9gHYL7zGD2pZMQ100L-62" style="edgeStyle=orthogonalEdgeStyle;rounded=0;orthogonalLoop=1;jettySize=auto;html=1;exitX=0;exitY=0.5;exitDx=0;exitDy=0;entryX=1.001;entryY=0.28;entryDx=0;entryDy=0;fontFamily=LMRoman10-Regular;fontSize=16;strokeWidth=2;entryPerimeter=0;" parent="1" source="aM9gHYL7zGD2pZMQ100L-22" target="aM9gHYL7zGD2pZMQ100L-39" edge="1">
          <mxGeometry relative="1" as="geometry">
            <Array as="points">
              <mxPoint x="720" y="405" />
              <mxPoint x="720" y="480" />
              <mxPoint x="680" y="480" />
            </Array>
          </mxGeometry>
        </mxCell>
        <mxCell id="aM9gHYL7zGD2pZMQ100L-63" style="edgeStyle=orthogonalEdgeStyle;rounded=0;orthogonalLoop=1;jettySize=auto;html=1;exitX=0;exitY=0.75;exitDx=0;exitDy=0;entryX=1;entryY=0.25;entryDx=0;entryDy=0;fontFamily=LMRoman10-Regular;fontSize=16;" parent="1" source="aM9gHYL7zGD2pZMQ100L-22" target="aM9gHYL7zGD2pZMQ100L-40" edge="1">
          <mxGeometry relative="1" as="geometry">
            <Array as="points">
              <mxPoint x="740" y="412" />
              <mxPoint x="740" y="548" />
              <mxPoint x="680" y="548" />
            </Array>
          </mxGeometry>
        </mxCell>
        <mxCell id="aM9gHYL7zGD2pZMQ100L-67" style="edgeStyle=orthogonalEdgeStyle;rounded=0;orthogonalLoop=1;jettySize=auto;html=1;exitX=0;exitY=0.25;exitDx=0;exitDy=0;entryX=1;entryY=0.5;entryDx=0;entryDy=0;dashed=1;strokeWidth=2;fontFamily=LMRoman10-Regular;fontSize=16;dashPattern=1 2;" parent="1" source="aM9gHYL7zGD2pZMQ100L-22" target="aM9gHYL7zGD2pZMQ100L-38" edge="1">
          <mxGeometry relative="1" as="geometry">
            <Array as="points">
              <mxPoint x="700" y="398" />
              <mxPoint x="700" y="425" />
            </Array>
          </mxGeometry>
        </mxCell>
        <mxCell id="aM9gHYL7zGD2pZMQ100L-22" value="&lt;font style=&quot;font-size: 16px;&quot; face=&quot;LMRoman10-Regular&quot;&gt;Relocation Table&lt;br&gt;&lt;/font&gt;" style="rounded=0;whiteSpace=wrap;html=1;strokeWidth=1;" parent="1" vertex="1">
          <mxGeometry x="760" y="390" width="160" height="30" as="geometry" />
        </mxCell>
        <mxCell id="aM9gHYL7zGD2pZMQ100L-64" style="edgeStyle=orthogonalEdgeStyle;rounded=0;orthogonalLoop=1;jettySize=auto;html=1;exitX=0;exitY=0.25;exitDx=0;exitDy=0;entryX=0;entryY=0.5;entryDx=0;entryDy=0;fontFamily=LMRoman10-Regular;fontSize=16;dashed=1;" parent="1" source="aM9gHYL7zGD2pZMQ100L-38" target="aM9gHYL7zGD2pZMQ100L-40" edge="1">
          <mxGeometry relative="1" as="geometry">
            <Array as="points">
              <mxPoint x="480" y="408" />
              <mxPoint x="480" y="565" />
            </Array>
          </mxGeometry>
        </mxCell>
        <mxCell id="aM9gHYL7zGD2pZMQ100L-65" style="edgeStyle=orthogonalEdgeStyle;rounded=0;orthogonalLoop=1;jettySize=auto;html=1;exitX=0;exitY=0.75;exitDx=0;exitDy=0;entryX=0;entryY=0.5;entryDx=0;entryDy=0;dashed=1;fontFamily=LMRoman10-Regular;fontSize=16;strokeWidth=2;" parent="1" source="aM9gHYL7zGD2pZMQ100L-38" target="aM9gHYL7zGD2pZMQ100L-39" edge="1">
          <mxGeometry relative="1" as="geometry">
            <Array as="points">
              <mxPoint x="500" y="442" />
              <mxPoint x="500" y="495" />
            </Array>
          </mxGeometry>
        </mxCell>
        <mxCell id="aM9gHYL7zGD2pZMQ100L-38" value="&lt;font face=&quot;LMRoman10-Regular&quot; style=&quot;font-size: 16px;&quot;&gt;text Segment&lt;/font&gt;" style="rounded=0;whiteSpace=wrap;html=1;" parent="1" vertex="1">
          <mxGeometry x="520" y="390" width="160" height="70" as="geometry" />
        </mxCell>
        <mxCell id="aM9gHYL7zGD2pZMQ100L-59" style="edgeStyle=orthogonalEdgeStyle;rounded=0;orthogonalLoop=1;jettySize=auto;html=1;exitX=1;exitY=0.75;exitDx=0;exitDy=0;entryX=0;entryY=0.25;entryDx=0;entryDy=0;dashed=1;fontFamily=LMRoman10-Regular;fontSize=16;strokeWidth=2;" parent="1" source="aM9gHYL7zGD2pZMQ100L-39" target="aM9gHYL7zGD2pZMQ100L-55" edge="1">
          <mxGeometry relative="1" as="geometry">
            <Array as="points">
              <mxPoint x="720" y="512" />
              <mxPoint x="720" y="491" />
            </Array>
          </mxGeometry>
        </mxCell>
        <mxCell id="aM9gHYL7zGD2pZMQ100L-57" style="edgeStyle=orthogonalEdgeStyle;rounded=0;orthogonalLoop=1;jettySize=auto;html=1;exitX=1;exitY=0.75;exitDx=0;exitDy=0;entryX=0;entryY=0.75;entryDx=0;entryDy=0;dashed=1;fontFamily=LMRoman10-Regular;fontSize=16;" parent="1" source="aM9gHYL7zGD2pZMQ100L-40" target="aM9gHYL7zGD2pZMQ100L-55" edge="1">
          <mxGeometry relative="1" as="geometry">
            <Array as="points">
              <mxPoint x="680" y="579" />
              <mxPoint x="720" y="579" />
              <mxPoint x="720" y="564" />
              <mxPoint x="760" y="564" />
            </Array>
          </mxGeometry>
        </mxCell>
        <mxCell id="aM9gHYL7zGD2pZMQ100L-40" value="&lt;font face=&quot;LMRoman10-Regular&quot; style=&quot;font-size: 16px;&quot;&gt;data Segment&lt;/font&gt;" style="rounded=0;whiteSpace=wrap;html=1;" parent="1" vertex="1">
          <mxGeometry x="520" y="530" width="160" height="70" as="geometry" />
        </mxCell>
        <mxCell id="aM9gHYL7zGD2pZMQ100L-45" value="&lt;b&gt;Image Address Space&lt;/b&gt;" style="text;html=1;strokeColor=none;fillColor=none;align=center;verticalAlign=middle;whiteSpace=wrap;rounded=0;fontFamily=LMRoman10-Regular;fontSize=16;fontColor=default;" parent="1" vertex="1">
          <mxGeometry x="520" y="360" width="160" height="30" as="geometry" />
        </mxCell>
        <mxCell id="aM9gHYL7zGD2pZMQ100L-55" value="&lt;font face=&quot;LMRoman10-Regular&quot; style=&quot;font-size: 16px;&quot;&gt;Externally&lt;br&gt;Linked&amp;nbsp;Data&lt;/font&gt;" style="rounded=0;whiteSpace=wrap;html=1;" parent="1" vertex="1">
          <mxGeometry x="760" y="455" width="160" height="145" as="geometry" />
        </mxCell>
        <mxCell id="aM9gHYL7zGD2pZMQ100L-60" value="&lt;b&gt;Shared Library&lt;/b&gt;" style="text;html=1;strokeColor=none;fillColor=none;align=center;verticalAlign=middle;whiteSpace=wrap;rounded=0;fontFamily=LMRoman10-Regular;fontSize=16;fontColor=default;" parent="1" vertex="1">
          <mxGeometry x="760" y="425" width="160" height="30" as="geometry" />
        </mxCell>
        <mxCell id="aM9gHYL7zGD2pZMQ100L-61" value="&lt;b&gt;Image File&lt;/b&gt;" style="text;html=1;strokeColor=none;fillColor=none;align=center;verticalAlign=middle;whiteSpace=wrap;rounded=0;fontFamily=LMRoman10-Regular;fontSize=16;fontColor=default;" parent="1" vertex="1">
          <mxGeometry x="760" y="360" width="160" height="30" as="geometry" />
        </mxCell>
        <mxCell id="aM9gHYL7zGD2pZMQ100L-39" value="&lt;font face=&quot;LMRoman10-Regular&quot; style=&quot;font-size: 16px;&quot;&gt;&lt;b&gt;Global Offset Table&lt;/b&gt;&lt;/font&gt;" style="rounded=0;whiteSpace=wrap;html=1;strokeWidth=2;" parent="1" vertex="1">
          <mxGeometry x="520.5" y="460.5" width="160" height="70" as="geometry" />
        </mxCell>
      </root>
    </mxGraphModel>
  </diagram>
</mxfile>
